name GIL02_fast3.mot
datacolumns 153
datarows 4
range 0.31666666 0.34166664
endheader

                time	           pelvis_tx	           pelvis_ty	           pelvis_tz	         pelvis_tilt	         pelvis_list	     pelvis_rotation	       hip_flexion_r	     hip_adduction_r	      hip_rotation_r	        knee_angle_r	       ankle_angle_r	    subtalar_angle_r	         mtp_angle_r	       hip_flexion_l	     hip_adduction_l	      hip_rotation_l	        knee_angle_l	       ankle_angle_l	    subtalar_angle_l	         mtp_angle_l	    lumbar_extension	      lumbar_bending	     lumbar_rotation	     ground_force_vx	     ground_force_vy	     ground_force_vz	     ground_force_px	     ground_force_py	     ground_force_pz	     ground_force_vx	     ground_force_vy	     ground_force_vz	     ground_force_px	     ground_force_py	     ground_force_pz	     ground_torque_x	     ground_torque_y	     ground_torque_z	     ground_torque_x	     ground_torque_y	     ground_torque_z	    ground_marker_px	    ground_marker_py	    ground_marker_pz	    ground_marker_px	    ground_marker_py	    ground_marker_pz	    ground_marker_px	    ground_marker_py	    ground_marker_pz	    ground_marker_px	    ground_marker_py	    ground_marker_pz	    ground_marker_px	    ground_marker_py	    ground_marker_pz	    ground_marker_px	    ground_marker_py	    ground_marker_pz	    ground_marker_px	    ground_marker_py	    ground_marker_pz	    ground_marker_px	    ground_marker_py	    ground_marker_pz	    ground_marker_px	    ground_marker_py	    ground_marker_pz	    ground_marker_px	    ground_marker_py	    ground_marker_pz	    ground_marker_px	    ground_marker_py	    ground_marker_pz	    ground_marker_px	    ground_marker_py	    ground_marker_pz	    ground_marker_px	    ground_marker_py	    ground_marker_pz	    ground_marker_px	    ground_marker_py	    ground_marker_pz	    ground_marker_px	    ground_marker_py	    ground_marker_pz	    ground_marker_px	    ground_marker_py	    ground_marker_pz	    ground_marker_px	    ground_marker_py	    ground_marker_pz	    ground_marker_px	    ground_marker_py	    ground_marker_pz	    ground_marker_px	    ground_marker_py	    ground_marker_pz	    ground_marker_px	    ground_marker_py	    ground_marker_pz	    ground_marker_px	    ground_marker_py	    ground_marker_pz	    ground_marker_px	    ground_marker_py	    ground_marker_pz	    ground_marker_px	    ground_marker_py	    ground_marker_pz	    ground_marker_px	    ground_marker_py	    ground_marker_pz	    ground_marker_px	    ground_marker_py	    ground_marker_pz	    ground_marker_px	    ground_marker_py	    ground_marker_pz	    ground_marker_px	    ground_marker_py	    ground_marker_pz	    ground_marker_px	    ground_marker_py	    ground_marker_pz	    ground_marker_px	    ground_marker_py	    ground_marker_pz	    ground_marker_px	    ground_marker_py	    ground_marker_pz	    ground_marker_px	    ground_marker_py	    ground_marker_pz	    ground_marker_px	    ground_marker_py	    ground_marker_pz	    ground_marker_px	    ground_marker_py	    ground_marker_pz	    ground_marker_px	    ground_marker_py	    ground_marker_pz	    ground_marker_px	    ground_marker_py	    ground_marker_pz	    ground_marker_px	    ground_marker_py	    ground_marker_pz	    ground_marker_px	    ground_marker_py	    ground_marker_pz	
          0.31666666	          0.87555718	          0.96537328	         -0.17978430	          0.46132755	          2.19962955	          2.03279662	         -7.69211054	         -1.51827133	         11.74770641	         -3.21502066	          8.28581905	          0.00000000	          0.00000000	         25.27990341	          3.62106609	          0.83018327	        -38.92239761	         -2.85126829	          0.00000000	          0.00000000	         -7.82465601	         -0.14496472	         -0.76780534	         -2.66515134	        436.74912813	        -10.64678737	          0.76857990	          0.00000000	         -0.12439501	          0.00000000	          0.00000000	          0.00000000	          1.45716077	          0.00000000	         -0.20950432	          0.00000000	         -0.68557043	          0.00000000	          0.00000000	          0.00000000	          0.00000000	          0.79720563	          0.90017593	         -0.17563376	          0.79193199	          0.87440217	         -0.10626884	          0.78785801	          0.88112295	         -0.25649273	          0.74147022	          0.47386295	         -0.11210763	          0.97521812	          0.49339151	         -0.25168407	          0.65923476	          0.07506074	         -0.15205854	          0.88621676	          0.11242528	         -0.24118491	          0.87555718	          0.96537328	         -0.17978430	          0.87876439	          0.96008229	         -0.06151891	          0.87234992	          0.97066432	         -0.29804969	          0.69201916	          1.00430131	         -0.14097646	          0.69251978	          1.00159860	         -0.22662722	          0.75502342	          0.47132668	         -0.05525583	          0.97599775	          0.49304897	         -0.30967784	          0.71888530	          0.47645441	         -0.16505121	          0.98712826	          0.47302267	         -0.19758277	          0.64819467	          0.07348906	         -0.11364441	          0.86496776	          0.11649520	         -0.27363360	          0.66659820	          0.09225065	         -0.17944153	          0.89486873	          0.12381908	         -0.21506545	          0.68556803	          1.42424214	         -0.14746904	          0.81553799	          1.35333514	         -0.10828331	          0.81401861	          1.35770941	         -0.21602826	          0.79766905	          1.36250210	         -0.15866655	          0.88334405	          1.20201075	         -0.17819412	          0.81861907	          0.56086844	          0.01579059	          1.08843374	          0.62706465	         -0.26639202	          0.82939905	          0.62957209	         -0.04545273	          1.00157404	          0.64826089	         -0.30030644	          0.81585813	          0.54493886	         -0.07449056	          1.01759565	          0.56181985	         -0.29558074	          0.69646996	          0.19116521	         -0.01577008	          0.90925157	          0.24511470	         -0.36213934	          0.67333698	          0.17009410	         -0.09044309	          0.89315730	          0.21145536	         -0.28980559	          0.77596903	          0.03994255	         -0.14401284	          0.98702395	          0.05423915	         -0.26752400	
          0.32499999	          0.88761818	          0.96417820	         -0.17947759	          0.44600582	          2.44681716	          1.64106286	         -8.64102364	         -1.85320807	         11.90477562	         -2.84776449	          8.59345341	          0.00000000	          0.00000000	         25.48161697	          3.77795219	          0.04118551	        -35.82064056	         -3.08044815	          0.00000000	          0.00000000	         -7.79692745	         -0.62993896	         -0.10382465	          1.56833642	        446.93829764	        -12.05495974	          0.77004517	          0.00000000	         -0.12479564	          0.00000000	          0.00000000	          0.00000000	          1.46156238	          0.00000000	         -0.21000754	          0.00000000	         -0.81377020	          0.00000000	          0.00000000	          0.00000000	          0.00000000	          0.80994481	          0.89992791	         -0.17535006	          0.80339128	          0.87304384	         -0.10685670	          0.80045635	          0.88019609	         -0.25708726	          0.74622631	          0.47361875	         -0.11168920	          0.98911601	          0.49261606	         -0.25078213	          0.65973777	          0.07561471	         -0.15195788	          0.92191273	          0.10676687	         -0.23950781	          0.88761818	          0.96417820	         -0.17947759	          0.88993150	          0.95854068	         -0.06106409	          0.88530487	          0.96981567	         -0.29789108	          0.70382184	          1.00324285	         -0.14159256	          0.70483828	          1.00048387	         -0.22721604	          0.75954860	          0.47102365	         -0.05478548	          0.98969549	          0.49195468	         -0.30877545	          0.72075886	          0.47742921	         -0.16287780	          0.99881864	          0.47228470	         -0.19679809	          0.64875817	          0.07411198	         -0.11352365	          0.90054715	          0.10953822	         -0.27201676	          0.66701597	          0.09283675	         -0.17933469	          0.93060881	          0.11822801	         -0.21363536	          0.69760501	          1.42281508	         -0.14730765	          0.82778633	          1.35228586	         -0.10794165	          0.82573360	          1.35621333	         -0.21567972	          0.80955070	          1.36115658	         -0.15824905	          0.89546913	          1.20077157	         -0.17755316	          0.82433635	          0.55969548	          0.01605959	          1.10084331	          0.62618101	         -0.26652306	          0.83625680	          0.62829959	         -0.04566042	          1.01373720	          0.64704102	         -0.30043620	          0.82041711	          0.54439628	         -0.07374679	          1.02941298	          0.56036144	         -0.29531938	          0.69851261	          0.19136781	         -0.01542123	          0.93764496	          0.24033439	         -0.36077130	          0.67492241	          0.17071381	         -0.08988837	          0.92395198	          0.20549716	         -0.28854120	          0.77607793	          0.03994720	         -0.14402865	          1.02610421	          0.05386373	         -0.26490757	
          0.33333331	          0.89969885	          0.96272230	         -0.17910708	          0.42695618	          2.68019772	          1.19763136	         -9.50817966	         -2.15926552	         12.04716492	         -2.63596654	          8.96089363	          0.00000000	          0.00000000	         25.63326645	          3.89005327	         -0.91426760	        -32.66753387	         -3.53461456	          0.00000000	          0.00000000	         -7.65892506	         -0.91110271	          0.31363463	          5.82282433	        463.06591817	        -14.00533556	          0.77136426	          0.00000000	         -0.12522743	          0.00000000	          0.00000000	          0.00000000	          1.46608337	          0.00000000	         -0.21054208	          0.00000000	         -0.93308960	          0.00000000	          0.00000000	          0.00000000	          0.00000000	          0.82265282	          0.89953411	         -0.17519774	          0.81480455	          0.87146926	         -0.10741834	          0.81313521	          0.87898976	         -0.25765029	          0.75145221	          0.47319943	         -0.11143638	          1.00265670	          0.49142003	         -0.24984556	          0.66022813	          0.07617840	         -0.15189920	          0.95745504	          0.10188742	         -0.23783344	          0.89969885	          0.96272230	         -0.17910708	          0.90101635	          0.95678663	         -0.06053414	          0.89838129	          0.96865803	         -0.29768002	          0.71554190	          1.00195801	         -0.14233595	          0.71714181	          0.99915779	         -0.22791880	          0.76448298	          0.47055191	         -0.05446761	          1.00291252	          0.49037731	         -0.30783564	          0.72707981	          0.47734529	         -0.16304180	          1.01103866	          0.47042421	         -0.19661713	          0.64934397	          0.07475912	         -0.11343468	          0.93606573	          0.10336484	         -0.27041128	          0.66749513	          0.09354686	         -0.17913508	          0.96567595	          0.11367052	         -0.21189857	          0.70934224	          1.42106938	         -0.14697663	          0.83939052	          1.35080659	         -0.10722750	          0.83740270	          1.35456967	         -0.21508580	          0.82155555	          1.35955608	         -0.15785101	          0.90725613	          1.19924891	         -0.17661691	          0.83031189	          0.55836678	          0.01637984	          1.11285055	          0.62455785	         -0.26696151	          0.84334123	          0.62701058	         -0.04537900	          1.02547145	          0.64485085	         -0.30060634	          0.82692504	          0.54361910	         -0.07335649	          1.04107082	          0.55848747	         -0.29546520	          0.70079738	          0.19147894	         -0.01512145	          0.96593636	          0.23601007	         -0.35941187	          0.67665237	          0.17050636	         -0.08973618	          0.95419556	          0.19988587	         -0.28708255	          0.77621788	          0.03992826	         -0.14407319	          1.06470013	          0.05402312	         -0.26208359	
          0.34166664	          0.91179132	          0.96102756	         -0.17865247	          0.41688728	          2.89340472	          0.70866936	        -10.31164551	         -2.42491889	         12.16288567	         -2.57375145	          9.38471413	          0.00000000	          0.00000000	         25.72895050	          3.95211506	         -1.98721468	        -29.49254036	         -4.25744057	          0.00000000	          0.00000000	         -7.75218201	         -0.90830374	          0.34266239	          9.96380962	        484.75422661	        -16.24609265	          0.77255322	          0.00000000	         -0.12566666	          0.00000000	          0.00000000	          0.00000000	          1.47062842	          0.00000000	         -0.21111624	          0.00000000	         -1.03700195	          0.00000000	          0.00000000	          0.00000000	          0.00000000	          0.83519310	          0.89874196	         -0.17529607	          0.82619524	          0.86968702	         -0.10791585	          0.82589716	          0.87749881	         -0.25814193	          0.75713378	          0.47260559	         -0.11135049	          1.01587749	          0.48985484	         -0.24887566	          0.66071528	          0.07675831	         -0.15188201	          0.99265492	          0.09787570	         -0.23618597	          0.91179132	          0.96102756	         -0.17865247	          0.91202694	          0.95485365	         -0.05992299	          0.91155565	          0.96720147	         -0.29738194	          0.72720921	          1.00042164	         -0.14324215	          0.72945029	          0.99759752	         -0.22876009	          0.76980484	          0.46990836	         -0.05430297	          1.01571906	          0.48839119	         -0.30685696	          0.73334932	          0.47769243	         -0.16384088	          1.02238250	          0.46895775	         -0.19552961	          0.64992940	          0.07544381	         -0.11338606	          0.97132069	          0.09808275	         -0.26883268	          0.66826600	          0.09418086	         -0.17914821	          1.00008082	          0.11020091	         -0.21006937	          0.72145629	          1.41944969	         -0.14660390	          0.85105193	          1.34876299	         -0.10649821	          0.84998566	          1.35276997	         -0.21494080	          0.83364201	          1.35772550	         -0.15744193	          0.91912311	          1.19718564	         -0.17590651	          0.83652502	          0.55692232	          0.01675498	          1.12450445	          0.62229675	         -0.26758173	          0.85031366	          0.62597173	         -0.04463576	          1.03676760	          0.64245665	         -0.30109426	          0.83332223	          0.54235798	         -0.07348043	          1.05204368	          0.55603945	         -0.29533961	          0.70321608	          0.19151738	         -0.01488684	          0.99395502	          0.23226199	         -0.35806912	          0.67829782	          0.17061666	         -0.08945331	          0.98383212	          0.19509506	         -0.28556067	          0.77639139	          0.03988903	         -0.14414051	          1.10262740	          0.05466812	         -0.25903231	
